<?xml version="1.0" encoding="utf-8"?>
<!-- Generator: Adobe Illustrator 20.0.0, SVG Export Plug-In . SVG Version: 6.00 Build 0)  -->
<svg version="1.1" id="VIntage_8-Bit" xmlns="http://www.w3.org/2000/svg" xmlns:xlink="http://www.w3.org/1999/xlink" x="0px"
	 y="0px" viewBox="0 0 500 500" style="enable-background:new 0 0 500 500;" xml:space="preserve">
<style type="text/css">
	.st0{fill:#F2A541;}
	.st1{fill:#E65B10;}
</style>
<rect x="71.2" y="71.9" class="st0" width="363.6" height="362.3"/>
<rect x="72.4" y="42.3" class="st1" width="361.9" height="29.5"/>
<polygon points="434.5,71.9 434.5,431.9 43.9,431.9 43.9,463.7 434.5,463.7 441.6,463.7 466.3,463.7 466.3,71.9 "/>
<rect x="-121.4" y="237.1" transform="matrix(6.123234e-17 -1 1 6.123234e-17 -193.2251 310.5084)" class="st1" width="360" height="29.5"/>
<g id="Question_Mark__x2B__Shadow">
	<rect x="252.3" y="358.4" width="52.8" height="52.8"/>
	<polygon points="305.1,333.4 305.1,277 359.7,277 359.7,172.2 330.9,172.2 330.9,147.3 197.8,147.3 197.8,171.9 172.2,171.9 
		172.2,251.2 225.5,251.2 225.5,172.5 305.7,172.5 305.7,251.2 277.4,251.2 277.4,277 252.4,277 252.4,333.4 	"/>
	<rect x="228.9" y="333.4" class="st1" width="52.8" height="52.8"/>
	<polygon class="st1" points="281.8,305.5 281.8,252 336.3,252 336.3,147.1 307.5,147.1 307.5,121.1 174.4,121.1 174.4,146.8 
		148.8,146.8 148.8,226.2 202.1,226.2 202.1,147.4 282.3,147.4 282.3,227.3 254,227.3 254,252 229,252 229,305.5 	"/>
</g>
<g id="Four_Squares">
	<rect x="385.2" y="383.4" width="27.9" height="27.9"/>
	<rect x="385.2" y="95.4" width="27.9" height="27.9"/>
	<rect x="97.2" y="95.4" width="27.9" height="27.9"/>
	<rect x="97.2" y="383.4" width="27.9" height="27.9"/>
</g>
</svg>
